<?xml version="1.0" standalone="no"?>
<!DOCTYPE svg PUBLIC "-//W3C//DTD SVG 20010904//EN"
 "http://www.w3.org/TR/2001/REC-SVG-20010904/DTD/svg10.dtd">
<svg version="1.0" xmlns="http://www.w3.org/2000/svg"
 width="260.000000pt" height="260.000000pt" viewBox="0 0 260.000000 260.000000"
 preserveAspectRatio="xMidYMid meet">
<metadata>
Created by potrace 1.14, written by Peter Selinger 2001-2017
</metadata>
<g transform="translate(0.000000,260.000000) scale(0.100000,-0.100000)"
fill="#000000" stroke="none">
<path d="M0 1300 l0 -1300 1300 0 1300 0 0 1300 0 1300 -1300 0 -1300 0 0
-1300z m1492 1125 c92 -16 232 -62 313 -102 286 -143 508 -416 592 -730 24
-89 27 -115 27 -283 0 -168 -3 -194 -27 -283 -116 -433 -470 -757 -908 -833
-136 -23 -340 -15 -472 19 -394 104 -711 421 -813 814 -34 131 -43 338 -21
468 96 548 556 940 1108 944 64 1 155 -6 201 -14z"/>
<path d="M1069 2380 c-106 -22 -238 -75 -344 -138 -110 -65 -284 -238 -353
-351 -273 -447 -206 -1005 165 -1362 103 -99 185 -157 297 -210 429 -201 926
-108 1254 235 226 237 332 539 302 860 -46 479 -411 881 -880 970 -114 22
-329 20 -441 -4z m461 -358 c129 -45 218 -111 291 -215 50 -71 99 -198 99
-256 0 -21 10 -36 35 -55 81 -62 133 -184 121 -285 -18 -156 -141 -276 -293
-289 l-63 -5 0 -173 0 -174 -420 0 -420 0 -2 176 -3 176 -59 19 c-120 37 -232
144 -272 262 -27 76 -24 215 5 287 47 115 144 210 253 246 40 13 54 25 83 69
77 115 211 203 360 235 64 14 223 4 285 -18z"/>
<path d="M1190 1988 c-36 -13 -86 -36 -112 -51 -61 -35 -148 -122 -179 -176
-14 -26 -33 -44 -49 -48 -103 -25 -210 -115 -256 -216 -26 -54 -29 -74 -29
-157 0 -83 3 -103 29 -157 34 -75 122 -163 193 -195 72 -32 211 -37 281 -10
52 20 53 20 96 1 57 -25 173 -41 244 -33 31 4 87 17 123 30 l67 24 43 -20 c30
-13 66 -20 114 -20 89 0 155 29 212 94 50 56 73 119 73 197 0 75 -47 170 -106
214 -38 28 -41 35 -53 103 -31 180 -166 346 -339 413 -88 34 -263 38 -352 7z
m175 -98 c0 -11 -16 -17 -60 -22 -154 -17 -280 -122 -327 -270 -10 -33 -18
-75 -18 -93 0 -37 -15 -54 -32 -37 -17 17 6 135 38 201 32 66 122 159 182 190
91 46 217 64 217 31z"/>
<path d="M1065 939 c-27 -10 -74 -18 -102 -19 l-53 0 0 -155 0 -155 390 0 390
0 0 155 0 154 -47 21 -46 20 -56 -22 c-48 -19 -75 -22 -186 -22 -111 0 -138 3
-185 22 -30 12 -55 21 -55 21 0 -1 -22 -10 -50 -20z"/>
</g>
</svg>
